<svg xmlns="http://www.w3.org/2000/svg" version="1.1" xmlns:xlink="http://www.w3.org/1999/xlink" xmlns:svgjs="http://svgjs.dev/svgjs" width="2000" height="1247" viewBox="0 0 2000 1247"><g transform="matrix(1,0,0,1,-1.2121210447015756,0.504858299595071)"><svg viewBox="0 0 396 247" data-background-color="#35185a" preserveAspectRatio="xMidYMid meet" height="1247" width="2000" xmlns="http://www.w3.org/2000/svg" xmlns:xlink="http://www.w3.org/1999/xlink"><g id="tight-bounds" transform="matrix(1,0,0,1,0.2400000331491583,-0.09999999999999432)"><svg viewBox="0 0 395.52 247.2" height="247.2" width="395.52"><g><svg></svg></g><g><svg viewBox="0 0 395.52 247.2" height="247.2" width="395.52"><g><g><path xmlns="http://www.w3.org/2000/svg" d="M134.959 12.084l-5.524 23.132-20.025-5.87c-14.27-3.453-26.584-5.179-36.942-5.178-27.16 0-40.74 12.084-40.739 36.251 0 8.135 2.446 15.142 7.336 21.021l-30.34 0c-1.927-6.066-2.89-12.727-2.89-19.985 0-19.794 5.938-34.985 17.815-45.573 11.831-10.588 27.758-15.882 47.783-15.882 20.025 0 41.2 4.028 63.526 12.084zM152.567 174.697c0 22.787-7.02 40.556-21.061 53.307-14.04 12.797-33.95 19.196-59.728 19.196-12.889 0-25.825-1.91-38.807-5.731-13.027-3.775-23.684-8.194-31.97-13.258l8.631-19.679c20.945 9.667 40.809 14.501 59.591 14.5 18.736 0 32.983-3.798 42.742-11.393 9.805-7.596 14.708-18.644 14.708-33.144 0-4.553-0.758-8.798-2.276-12.735l27.64 0c0.353 2.869 0.53 5.848 0.53 8.937zM277.824 245.128h-25.894v-79.368h25.894zM251.93 3.453h69.05c25.779 0 44.491 5.639 56.138 16.917 11.6 11.278 17.401 28.817 17.401 52.616 0 2.909-0.106 5.727-0.319 8.454h-25.933c0.239-2.359 0.358-4.832 0.358-7.418 0-17.355-4.718-29.784-14.155-37.287-9.437-7.457-24.513-11.186-45.228-11.186h-31.418l0 55.891h-25.894z" fill="#ffffff" fill-rule="nonzero" stroke="none" stroke-width="1" stroke-linecap="butt" stroke-linejoin="miter" stroke-miterlimit="10" stroke-dasharray="" stroke-dashoffset="0" font-family="none" font-weight="none" font-size="none" text-anchor="none" style="mix-blend-mode: normal" data-fill-palette-color="tertiary"></path></g></g><g transform="matrix(1,0,0,1,0,90.96438664323374)"><svg viewBox="0 0 395.52 65.27122671353251" height="65.27122671353251" width="395.52"><g><svg viewBox="0 0 395.52 65.27122671353251" height="65.27122671353251" width="395.52"><g><svg viewBox="0 0 395.52 65.27122671353251" height="65.27122671353251" width="395.52"><g><svg viewBox="0 0 395.52 65.27122671353251" height="65.27122671353251" width="395.52"><g><svg viewBox="0 0 395.52 65.27122671353251" height="65.27122671353251" width="395.52"><g><svg viewBox="0 0 395.52 65.27122671353251" height="65.27122671353251" width="395.52"><g transform="matrix(1,0,0,1,0,0)"><svg width="395.52" viewBox="2.700000047683716 -35 284.4700012207031 46.95000076293945" height="65.27122671353251" data-palette-color="#ffffff"><path d="M2.7-1.65L3.6-4.45Q6.85-2.95 9.8-2.95 12.75-2.95 14.28-4.13 15.8-5.3 15.8-7.25 15.8-9.2 14.5-10.28 13.2-11.35 11.33-11.95 9.45-12.55 7.58-13.25 5.7-13.95 4.4-15.35 3.1-16.75 3.1-18.9L3.1-18.9Q3.1-22.05 5.15-23.78 7.2-25.5 10.7-25.5 14.2-25.5 17.2-24.45L17.2-24.45 17.55-24.3 16.9-21.1Q13.9-22.25 11.33-22.25 8.75-22.25 7.8-21.45 6.85-20.65 6.85-18.75L6.85-18.75Q6.85-17.55 8.15-16.7 9.45-15.85 11.33-15.23 13.2-14.6 15.08-13.78 16.95-12.95 18.25-11.3 19.55-9.65 19.55-7.25L19.55-7.25Q19.55-3.75 17.1-1.73 14.65 0.3 10.35 0.3 6.05 0.3 2.7-1.65L2.7-1.65ZM37.15-14.95L37.15-14.95 39.2-14.95Q39.2-19.5 38.05-20.88 36.9-22.25 32.95-22.25 29-22.25 26.25-21.2L26.25-21.2 25.55-24.1Q29.75-25.5 34.25-25.5L34.25-25.5Q43.05-25.5 43.05-16.7L43.05-16.7 43.05 0 40.85 0 39.55-2.95Q37.25-1.05 35.57-0.38 33.9 0.3 31.7 0.3L31.7 0.3Q28.2 0.3 26.25-1.78 24.3-3.85 24.3-7.25L24.3-7.25Q24.3-14.95 37.15-14.95ZM39.25-6.55L39.25-11.8 37-11.8Q31.9-11.8 29.97-10.8 28.05-9.8 28.05-7.68 28.05-5.55 29.15-4.2 30.25-2.85 32.02-2.85 33.8-2.85 35.42-3.68 37.05-4.5 39.25-6.55L39.25-6.55ZM51.14-35L54.89-35 54.89-30.6 51.14-30.6 51.14-35ZM51.3 11.95L49.09 10.2Q51.14 7.55 51.14 1.7L51.14 1.7 51.14-25 54.89-25 54.89 0.5Q54.89 4.8 54.07 7.35 53.24 9.9 51.3 11.95L51.3 11.95ZM74.04-14.95L74.04-14.95 76.09-14.95Q76.09-19.5 74.94-20.88 73.79-22.25 69.84-22.25 65.89-22.25 63.14-21.2L63.14-21.2 62.44-24.1Q66.64-25.5 71.14-25.5L71.14-25.5Q79.94-25.5 79.94-16.7L79.94-16.7 79.94 0 77.74 0 76.44-2.95Q74.14-1.05 72.47-0.38 70.79 0.3 68.59 0.3L68.59 0.3Q65.09 0.3 63.14-1.78 61.19-3.85 61.19-7.25L61.19-7.25Q61.19-14.95 74.04-14.95ZM76.14-6.55L76.14-11.8 73.89-11.8Q68.79-11.8 66.87-10.8 64.94-9.8 64.94-7.68 64.94-5.55 66.04-4.2 67.14-2.85 68.92-2.85 70.69-2.85 72.32-3.68 73.94-4.5 76.14-6.55L76.14-6.55ZM93.49 0.5L93.49 0.5 85.04-25 89.29-25 95.64-4 102.04-25 106.19-25 97.59 0Q95.94 4.85 93.94 7.5 91.94 10.15 88.79 11.8L88.79 11.8 87.39 9.2Q89.39 8.05 91.14 5.8 92.89 3.55 93.49 0.5ZM127.54-2.05L127.54 11.9 123.79 11.9 123.79-24.95 125.99-24.95 127.29-22.15Q129.39-23.75 131.21-24.63 133.04-25.5 135.24-25.5L135.24-25.5Q144.24-25.5 144.24-12.55L144.24-12.55Q144.24-5.2 141.04-2.3L141.04-2.3Q138.19 0.35 134.56 0.35 130.94 0.35 127.54-2.05L127.54-2.05ZM127.54-18.8L127.54-18.8 127.54-5.45Q128.54-4.25 130.24-3.55 131.94-2.85 133.49-2.85L133.49-2.85Q137.39-2.85 138.94-5.15 140.49-7.45 140.49-12.35 140.49-17.25 138.94-19.75 137.39-22.25 134.99-22.25L134.99-22.25Q133.39-22.25 131.81-21.6 130.24-20.95 129.46-20.38 128.69-19.8 127.54-18.8ZM154.83-19.1L154.83-19.1 154.83 0 151.08 0 151.08-25 153.48-25 154.08-22.05Q156.48-23.95 158.08-24.73 159.68-25.5 161.73-25.5L161.73-25.5Q162.73-25.5 163.23-25.4L163.23-25.4 163.93-25.2 163.33-21.75Q162.43-22.05 160.88-22.05L160.88-22.05Q157.88-22.05 154.83-19.1ZM180.43-14.95L180.43-14.95 182.48-14.95Q182.48-19.5 181.33-20.88 180.18-22.25 176.23-22.25 172.28-22.25 169.53-21.2L169.53-21.2 168.83-24.1Q173.03-25.5 177.53-25.5L177.53-25.5Q186.33-25.5 186.33-16.7L186.33-16.7 186.33 0 184.13 0 182.83-2.95Q180.53-1.05 178.86-0.38 177.18 0.3 174.98 0.3L174.98 0.3Q171.48 0.3 169.53-1.78 167.58-3.85 167.58-7.25L167.58-7.25Q167.58-14.95 180.43-14.95ZM182.53-6.55L182.53-11.8 180.28-11.8Q175.18-11.8 173.26-10.8 171.33-9.8 171.33-7.68 171.33-5.55 172.43-4.2 173.53-2.85 175.31-2.85 177.08-2.85 178.71-3.68 180.33-4.5 182.53-6.55L182.53-6.55ZM195.43 0L195.43-35 199.18-35 199.18-14.4 209.88-25 214.63-25 204.03-14.85 215.18 0 210.93 0 201.83-12.5 199.18-9.8 199.18 0 195.43 0ZM231.68-14.95L231.68-14.95 233.73-14.95Q233.73-19.5 232.58-20.88 231.43-22.25 227.48-22.25 223.53-22.25 220.78-21.2L220.78-21.2 220.08-24.1Q224.28-25.5 228.78-25.5L228.78-25.5Q237.58-25.5 237.58-16.7L237.58-16.7 237.58 0 235.38 0 234.08-2.95Q231.78-1.05 230.1-0.38 228.43 0.3 226.23 0.3L226.23 0.3Q222.73 0.3 220.78-1.78 218.83-3.85 218.83-7.25L218.83-7.25Q218.83-14.95 231.68-14.95ZM233.78-6.55L233.78-11.8 231.53-11.8Q226.43-11.8 224.5-10.8 222.58-9.8 222.58-7.68 222.58-5.55 223.68-4.2 224.78-2.85 226.55-2.85 228.33-2.85 229.95-3.68 231.58-4.5 233.78-6.55L233.78-6.55ZM244.82-1.65L245.72-4.45Q248.97-2.95 251.92-2.95 254.87-2.95 256.4-4.13 257.92-5.3 257.92-7.25 257.92-9.2 256.62-10.28 255.32-11.35 253.45-11.95 251.57-12.55 249.7-13.25 247.82-13.95 246.52-15.35 245.22-16.75 245.22-18.9L245.22-18.9Q245.22-22.05 247.27-23.78 249.32-25.5 252.82-25.5 256.32-25.5 259.32-24.45L259.32-24.45 259.67-24.3 259.02-21.1Q256.02-22.25 253.45-22.25 250.87-22.25 249.92-21.45 248.97-20.65 248.97-18.75L248.97-18.75Q248.97-17.55 250.27-16.7 251.57-15.85 253.45-15.23 255.32-14.6 257.2-13.78 259.07-12.95 260.37-11.3 261.67-9.65 261.67-7.25L261.67-7.25Q261.67-3.75 259.22-1.73 256.77 0.3 252.47 0.3 248.17 0.3 244.82-1.65L244.82-1.65ZM287.17-17.55L287.17 0 283.42 0 283.42-16.45Q283.42-22.5 278.37-22.5L278.37-22.5Q274.62-22.5 272.22-20.1L272.22-20.1 272.22 0 268.47 0 268.47-35 272.17-35 272.17-23.15Q273.27-24.05 273.9-24.45 274.52-24.85 275.95-25.25 277.37-25.65 279.17-25.65L279.17-25.65Q282.62-25.65 284.9-23.55 287.17-21.45 287.17-17.55L287.17-17.55Z" opacity="1" transform="matrix(1,0,0,1,0,0)" fill="#ffffff" class="undefined-text-0" data-fill-palette-color="primary" id="text-0"></path></svg></g></svg></g></svg></g></svg></g></svg></g></svg></g></svg></g></svg></g><defs></defs></svg><rect width="395.52" height="247.2" fill="none" stroke="none" visibility="hidden"></rect></g></svg></g></svg>